<svg xmlns="http://www.w3.org/2000/svg" viewBox="0 0 323 243"><filter id="b"><feGaussianBlur stdDeviation="0" /></filter><path d="M0 0h323v243H0z" fill="#817068" /><g filter="url(#b)" transform="scale(1.261719) translate(0.5 0.5)"><path fill="#07130f" fill-opacity=".501961" d="M240-9l31 162-87-55z" /><path fill="#d3cac1" fill-opacity=".501961" d="M-16 22 29 187 66-16z" /><path fill="#85e7ff" fill-opacity=".501961" d="M146-8l42 4-3 61z" /><path fill="#200f00" fill-opacity=".501961" d="M142 45l50 8L63 120z" /><path fill="#b8686e" fill-opacity=".501961" d="M37 35-2 207l121-22z" /><path fill="#d1dec8" fill-opacity=".501961" d="M-16 98l67 33L11 22z" /><path fill="#313b31" fill-opacity=".501961" d="M93-16l21 80 40-53z" /><path fill="#ccb883" fill-opacity=".501961" d="M164 82l50 2-26-42z" /><path fill="#180e0a" fill-opacity=".501961" d="M190 18l51 15-2 66z" /><path fill="#081100" fill-opacity=".501961" d="M28 77 48 38 31 46z" /><path fill="#ffe5cc" fill-opacity=".501961" d="M55 39 83 61 37 59z" /><path fill="#39414b" fill-opacity=".501961" d="M122 207l31-87-50 2z" /><path fill="#a2ada0" fill-opacity=".501961" d="M109 67l-4-44L23-9z" /><path fill="#93b6ff" fill-opacity=".501961" d="M163 18 152-4l75 2z" /><path fill="#a09a8a" fill-opacity=".501961" d="M271 185 153 207l58-79z" /><path fill="#1b1405" fill-opacity=".501961" d="M48 38l12-9L93 53z" /><path fill="#21291d" fill-opacity=".501961" d="M47 60 24 72l64-3z" /><path fill="#e3a352" fill-opacity=".501961" d="M151 65l16-36-32-4z" /><path fill="#b04846" fill-opacity=".501961" d="M187 5l5 45L244 2z" /><path fill="#44483f" fill-opacity=".501961" d="M257 44l-81 89 95 2z" /><path fill="#79c0ff" fill-opacity=".501961" d="M252 53 242 17 253 3z" /><path fill="#070b06" fill-opacity=".501961" d="M118 98l23-24-58 3z" /><path fill="#60604c" fill-opacity=".501961" d="M52 143l43-17 21-85z" /><path fill="#5a3003" fill-opacity=".501961" d="M189 42l-34 5-14 55z" /><path fill="#71b0ff" fill-opacity=".501961" d="M188 0 150-3l33 49z" /><path fill="#395471" fill-opacity=".501961" d="M35 119l-47 3-4 54z" /><path fill="#f3ca8c" fill-opacity=".501961" d="M118 51 94 40 89 69z" /><path fill="#c66d7f" fill-opacity=".501961" d="M106 132l4 57-126-29z" /><path fill="#dcdbb2" fill-opacity=".501961" d="M204 39l6-21L196-3z" /><path fill="#bbad83" fill-opacity=".501961" d="M-16 118 42 89l28 22z" /><path fill="#1f1100" fill-opacity=".501961" d="M92 46 86 67 76 48z" /><path fill="#9e444b" fill-opacity=".501961" d="M-16 207 2 158l128 49z" /><path fill="#000" fill-opacity=".501961" d="M234 31 206 96l35-41z" /><path fill="#2c0000" fill-opacity=".501961" d="M203 23 191 12l5 27z" /><path fill="#0e1f00" fill-opacity=".501961" d="M252 74l2-78 17 54z" /><path fill="#a17e6c" fill-opacity=".501961" d="M214 102l6 32 7-58z" /><path fill="#998c6c" fill-opacity=".501961" d="M91 114 197 95v30z" /><path fill="#513410" fill-opacity=".501961" d="M176 138l12-55-14 22z" /><path fill="#4b565d" fill-opacity=".501961" d="M247-16 232 15l16 41z" /><path fill="#a7b2ab" fill-opacity=".501961" d="M10-16 66 28-16 62z" /><path fill="#43484e" fill-opacity=".501961" d="M115 139 43 112l55 3z" /><path fill="#000003" fill-opacity=".501961" d="M115 50V21l-9-4z" /><path fill="#100d0e" fill-opacity=".501961" d="M214 127l-2-44-13 42z" /><path fill="#1d1609" fill-opacity=".501961" d="M115 53l-14 4 24 12z" /><path fill="#fff" fill-opacity=".501961" d="M204 4 260-6 190-16z" /><path fill="#564d3c" fill-opacity=".501961" d="M161 151l-47 8-6 48z" /><path fill="#a6042a" fill-opacity=".501961" d="M202 5l28-4 4 21z" /><path fill="#497c84" fill-opacity=".501961" d="M74 152v28L56 127z" /><path fill="#b3925f" fill-opacity=".501961" d="M203 69l6-19-49-15z" /><path fill="#765a2b" fill-opacity=".501961" d="M131 95l27 27-9-69z" /><path fill="#d1c5b0" fill-opacity=".501961" d="M148 109l1 12-29-26z" /><path fill="#ffdbcc" fill-opacity=".501961" d="M58 79l8-12V80z" /><path fill="#9cc8ff" fill-opacity=".501961" d="M156 28l30 12V11z" /><path fill="#3f3633" fill-opacity=".501961" d="M115 96l19 29 25 10z" /><path fill="#c9ccc5" fill-opacity=".501961" d="M-16 125 24 26l7 70z" /><path fill="#b0a889" fill-opacity=".501961" d="M111 95l22 27-43-8z" /><path fill="#2a241d" fill-opacity=".501961" d="M96 78 85 64 57 65z" /><path fill="#8b8378" fill-opacity=".501961" d="M196 197l75-55-138-10z" /><path fill="#bfa981" fill-opacity=".501961" d="M96 89l12-19-6-16z" /><path fill="#c0b386" fill-opacity=".501961" d="M126 62l-10-8 22-17z" /><path fill="#b3a797" fill-opacity=".501961" d="M271 166l-7 25-87-3z" /><path fill="#b0b8ba" fill-opacity=".501961" d="M158 117l16 1-1-22z" /><path fill="#e4c0ad" fill-opacity=".501961" d="M84 57 37 56 49 40z" /><path fill="#a1747d" fill-opacity=".501961" d="M229 39l1-43 8 17z" /><path fill="#050000" fill-opacity=".501961" d="M160 53l11-9 12 17z" /><path fill="#1f2221" fill-opacity=".501961" d="M237 141l18-5-35-22z" /><path fill="#1b2116" fill-opacity=".501961" d="M242 27 207 47l6-27z" /><path fill="#707b79" fill-opacity=".501961" d="M103 38 18-16l90 28z" /><path fill="#b90936" fill-opacity=".501961" d="M189 40l9-14-11-16z" /><path fill="#000" fill-opacity=".501961" d="M173 97l-7-1 6-10z" /><path fill="#ce6b7c" fill-opacity=".501961" d="M29 128l43 26-66-1z" /><path fill="#ae9c6f" fill-opacity=".501961" d="M173 99l37-69-27 16z" /><path fill="#ac92a6" fill-opacity=".501961" d="M215 47l11-2-9-3z" /><path fill="#5a6d74" fill-opacity=".501961" d="M242 97V24l10 37z" /><path fill="#9f5a17" fill-opacity=".501961" d="M139 38l12 21-21-7z" /><path fill="#a69b8c" fill-opacity=".501961" d="M2e2 146l41-4-43-16z" /><path fill="#d7bfac" fill-opacity=".501961" d="M186-13l25 32-12 1z" /><path fill="#c9bf7b" fill-opacity=".501961" d="M209 17l24 5-7-6z" /><path fill="#a0d5ff" fill-opacity=".501961" d="M254 19l-5 12-1-28z" /><path fill="#bf955e" fill-opacity=".501961" d="M150 56l4-33 21 14z" /><path fill="#9b8981" fill-opacity=".501961" d="M225 125l-26-10 20 1z" /><path fill="#64717a" fill-opacity=".501961" d="M27 117-2 122l67 19z" /><path fill="#7c8a00" fill-opacity=".501961" d="M155 207l-40-17h95z" /><path fill="#545c6c" fill-opacity=".501961" d="M83 116l83 13-47 25z" /><path fill="#756b52" fill-opacity=".501961" d="M213 76l-23 39 5-81z" /><path fill="#000" fill-opacity=".501961" d="M194 42l2-16 5 2z" /><path fill="#939a00" fill-opacity=".501961" d="M271 119 255 66V173z" /><path fill="#5c5b52" fill-opacity=".501961" d="M137-16l27 43L38-8z" /><path fill="#5f5342" fill-opacity=".501961" d="M108 86 92 72 67 141z" /><path fill="#b7a186" fill-opacity=".501961" d="M28 70 49 80 33 114z" /><path fill="#9f8652" fill-opacity=".501961" d="M158 118l-7-27 24-35z" /><path fill="#ac8870" fill-opacity=".501961" d="M85 78 66 136l3-58z" /><path fill="#473a2c" fill-opacity=".501961" d="M44 35 29 51 63 35z" /><path fill="#c4767d" fill-opacity=".501961" d="M92 207l1-78 20 26z" /><path fill="#202218" fill-opacity=".501961" d="M38 53 31 66l4 9z" /><path fill="#000" fill-opacity=".501961" d="M237 71 220 60l-8 17z" /></g></svg>